HIERARCHY
ROOT hips
{
  OFFSET 0 10.680822821525009 1.3929502295107734
  CHANNELS 6 Xposition Yposition Zposition Yrotation Xrotation Zrotation
  JOINT spine
  {
    OFFSET -7.042017322922631e-31 0.6058489940359625 0
    CHANNELS 3 Yrotation Xrotation Zrotation
    JOINT chest
    {
      OFFSET 0 1.2699794144455032 0
      CHANNELS 3 Yrotation Xrotation Zrotation
      JOINT upperChest
      {
        OFFSET 0 1.217799211677689 0
        CHANNELS 3 Yrotation Xrotation Zrotation
        JOINT neck
        {
          OFFSET 0 1.5248826104153006 0
          CHANNELS 3 Yrotation Xrotation Zrotation
          JOINT head
          {
            OFFSET 0 0.8197772727844447 0
            CHANNELS 3 Yrotation Xrotation Zrotation
            JOINT leftEye
            {
              OFFSET 0.2793952361220866 0.6769952096623495 0.1830357412467788
              CHANNELS 3 Yrotation Xrotation Zrotation
              End Site
              {
                OFFSET 0.2793952361220866 0.6769952096623495 0.1830357412467788
              }
            }
            JOINT rightEye
            {
              OFFSET -0.27939522230689573 0.676995205357064 0.18303631459760622
              CHANNELS 3 Yrotation Xrotation Zrotation
              End Site
              {
                OFFSET -0.27939522230689573 0.676995205357064 0.18303631459760622
              }
            }
          }
        }
        JOINT leftShoulder
        {
          OFFSET 0.41486978509200423 1.1670505408695453 0
          CHANNELS 3 Yrotation Xrotation Zrotation
          JOINT leftUpperArm
          {
            OFFSET 0.9737926108153417 0 0
            CHANNELS 3 Yrotation Xrotation Zrotation
            JOINT leftLowerArm
            {
              OFFSET 2.5269332222665284 0 0
              CHANNELS 3 Yrotation Xrotation Zrotation
              JOINT leftHand
              {
                OFFSET 2.4263782738425914 0 0
                CHANNELS 3 Yrotation Xrotation Zrotation
                JOINT leftIndexProximal
                {
                  OFFSET 0.724320348022514 0.08170607082582437 0.20360061616140124
                  CHANNELS 3 Yrotation Xrotation Zrotation
                  JOINT leftIndexIntermediate
                  {
                    OFFSET 0.36548960630744587 -0.010566596513783999 -0.01414783573280308
                    CHANNELS 3 Yrotation Xrotation Zrotation
                    JOINT leftIndexDistal
                    {
                      OFFSET 0.22502819650693362 -0.007863819831430696 -0.007567681939621526
                      CHANNELS 3 Yrotation Xrotation Zrotation
                      End Site
                      {
                        OFFSET 0.22502819650693362 -0.007863819831430696 -0.007567681939621526
                      }
                    }
                  }
                }
                JOINT leftLittleProximal
                {
                  OFFSET 0.6720322998298205 0.08170601055037707 -0.3230036039466837
                  CHANNELS 3 Yrotation Xrotation Zrotation
                  JOINT leftLittleIntermediate
                  {
                    OFFSET 0.34583592281688713 5.476543019078406e-8 1.3869203337180114e-7
                    CHANNELS 3 Yrotation Xrotation Zrotation
                    JOINT leftLittleDistal
                    {
                      OFFSET 0.19925728062053938 0.003098047439490381 0.0038303983709246925
                      CHANNELS 3 Yrotation Xrotation Zrotation
                      End Site
                      {
                        OFFSET 0.19925728062053938 0.003098047439490381 0.0038303983709246925
                      }
                    }
                  }
                }
                JOINT leftMiddleProximal
                {
                  OFFSET 0.7300436596551069 0.0817073395107144 0.022661722987926763
                  CHANNELS 3 Yrotation Xrotation Zrotation
                  JOINT leftMiddleIntermediate
                  {
                    OFFSET 0.40758254347686607 -0.0000012383587111308714 2.408460318820138e-7
                    CHANNELS 3 Yrotation Xrotation Zrotation
                    JOINT leftMiddleDistal
                    {
                      OFFSET 0.2514490105498507 0.0000013869132886590307 9.738618134136345e-8
                      CHANNELS 3 Yrotation Xrotation Zrotation
                      End Site
                      {
                        OFFSET 0.2514490105498507 0.0000013869132886590307 9.738618134136345e-8
                      }
                    }
                  }
                }
                JOINT leftRingProximal
                {
                  OFFSET 0.7217261161191838 0.08170601902187746 -0.15043395722184966
                  CHANNELS 3 Yrotation Xrotation Zrotation
                  JOINT leftRingIntermediate
                  {
                    OFFSET 0.37808807487521556 0.0000013754022405443322 2.2046919317952884e-7
                    CHANNELS 3 Yrotation Xrotation Zrotation
                    JOINT leftRingDistal
                    {
                      OFFSET 0.21812105442344254 -0.002713483731960231 -0.004991354517454624
                      CHANNELS 3 Yrotation Xrotation Zrotation
                      End Site
                      {
                        OFFSET 0.21812105442344254 -0.002713483731960231 -0.004991354517454624
                      }
                    }
                  }
                }
                JOINT leftThumbProximal
                {
                  OFFSET 0.10793587079521427 -0.1652791240518252 -0.07775251827190094
                  CHANNELS 3 Yrotation Xrotation Zrotation
                  JOINT leftThumbIntermediate
                  {
                    OFFSET 0.40355819082296684 -0.017484006740276614 0.3177776014416309
                    CHANNELS 3 Yrotation Xrotation Zrotation
                    JOINT leftThumbDistal
                    {
                      OFFSET 0.2318764658022603 -0.018510186824293617 0.21396001800186287
                      CHANNELS 3 Yrotation Xrotation Zrotation
                      End Site
                      {
                        OFFSET 0.2318764658022603 -0.018510186824293617 0.21396001800186287
                      }
                    }
                  }
                }
              }
            }
          }
        }
        JOINT rightShoulder
        {
          OFFSET -0.4148697850920044 1.1670505408695453 0
          CHANNELS 3 Yrotation Xrotation Zrotation
          JOINT rightUpperArm
          {
            OFFSET -0.9737926108153414 0 0
            CHANNELS 3 Yrotation Xrotation Zrotation
            JOINT rightLowerArm
            {
              OFFSET -2.5269332222665293 0 0
              CHANNELS 3 Yrotation Xrotation Zrotation
              JOINT rightHand
              {
                OFFSET -2.42637827384259 0 0
                CHANNELS 3 Yrotation Xrotation Zrotation
                JOINT rightIndexProximal
                {
                  OFFSET -0.724320348022514 0.08170607082582437 0.20360061616140124
                  CHANNELS 3 Yrotation Xrotation Zrotation
                  JOINT rightIndexIntermediate
                  {
                    OFFSET -0.36548960630744587 -0.010566596513783999 -0.01414783573280308
                    CHANNELS 3 Yrotation Xrotation Zrotation
                    JOINT rightIndexDistal
                    {
                      OFFSET -0.22502819650693362 -0.007863819831430696 -0.007567681939621526
                      CHANNELS 3 Yrotation Xrotation Zrotation
                      End Site
                      {
                        OFFSET -0.22502819650693362 -0.007863819831430696 -0.007567681939621526
                      }
                    }
                  }
                }
                JOINT rightLittleProximal
                {
                  OFFSET -0.6720322998298205 0.08170601055037707 -0.3230036039466837
                  CHANNELS 3 Yrotation Xrotation Zrotation
                  JOINT rightLittleIntermediate
                  {
                    OFFSET -0.34583592281688713 5.476543019078406e-8 1.3869203337180114e-7
                    CHANNELS 3 Yrotation Xrotation Zrotation
                    JOINT rightLittleDistal
                    {
                      OFFSET -0.19925728062053938 0.003098047439490381 0.0038303983709246925
                      CHANNELS 3 Yrotation Xrotation Zrotation
                      End Site
                      {
                        OFFSET -0.19925728062053938 0.003098047439490381 0.0038303983709246925
                      }
                    }
                  }
                }
                JOINT rightMiddleProximal
                {
                  OFFSET -0.7300436596551069 0.0817073395107144 0.022661722987926763
                  CHANNELS 3 Yrotation Xrotation Zrotation
                  JOINT rightMiddleIntermediate
                  {
                    OFFSET -0.40758254347686607 -0.0000012383587111308714 2.408460318820138e-7
                    CHANNELS 3 Yrotation Xrotation Zrotation
                    JOINT rightMiddleDistal
                    {
                      OFFSET -0.2514490105498507 0.0000013869132886590307 9.738618134136345e-8
                      CHANNELS 3 Yrotation Xrotation Zrotation
                      End Site
                      {
                        OFFSET -0.2514490105498507 0.0000013869132886590307 9.738618134136345e-8
                      }
                    }
                  }
                }
                JOINT rightRingProximal
                {
                  OFFSET -0.7217261161191838 0.08170601902187746 -0.15043395722184966
                  CHANNELS 3 Yrotation Xrotation Zrotation
                  JOINT rightRingIntermediate
                  {
                    OFFSET -0.37808807487521556 0.0000013754022405443322 2.2046919317952884e-7
                    CHANNELS 3 Yrotation Xrotation Zrotation
                    JOINT rightRingDistal
                    {
                      OFFSET -0.21812105442344254 -0.002713483731960231 -0.004991354517454624
                      CHANNELS 3 Yrotation Xrotation Zrotation
                      End Site
                      {
                        OFFSET -0.21812105442344254 -0.002713483731960231 -0.004991354517454624
                      }
                    }
                  }
                }
                JOINT rightThumbProximal
                {
                  OFFSET -0.10793587079521427 -0.1652791240518252 -0.07775251827190094
                  CHANNELS 3 Yrotation Xrotation Zrotation
                  JOINT rightThumbIntermediate
                  {
                    OFFSET -0.40355819082296684 -0.017484006740276614 0.3177776014416309
                    CHANNELS 3 Yrotation Xrotation Zrotation
                    JOINT rightThumbDistal
                    {
                      OFFSET -0.2318764658022603 -0.018510186824293617 0.21396001800186287
                      CHANNELS 3 Yrotation Xrotation Zrotation
                      End Site
                      {
                        OFFSET -0.2318764658022603 -0.018510186824293617 0.21396001800186287
                      }
                    }
                  }
                }
              }
            }
          }
        }
      }
    }
  }
  JOINT leftUpperLeg
  {
    OFFSET 0.8486251390888677 -0.4421577294694363 0
    CHANNELS 3 Yrotation Xrotation Zrotation
    JOINT leftLowerLeg
    {
      OFFSET 0 -4.10147812638609 0
      CHANNELS 3 Yrotation Xrotation Zrotation
      JOINT leftFoot
      {
        OFFSET -0.0002543926476658853 -4.77292286812444 0.007402811231737388
        CHANNELS 3 Yrotation Xrotation Zrotation
        JOINT leftToes
        {
          OFFSET 0 -0.7027875951174846 1.2062924140498823
          CHANNELS 3 Yrotation Xrotation Zrotation
          End Site
          {
            OFFSET 0 -0.7027875951174846 1.2062924140498823
          }
        }
      }
    }
  }
  JOINT rightUpperLeg
  {
    OFFSET -0.8486251390888677 -0.4421577294694363 0
    CHANNELS 3 Yrotation Xrotation Zrotation
    JOINT rightLowerLeg
    {
      OFFSET 0 -4.10147812638609 0
      CHANNELS 3 Yrotation Xrotation Zrotation
      JOINT rightFoot
      {
        OFFSET 0.0002543926476658853 -4.77292286812444 0.007402811231737388
        CHANNELS 3 Yrotation Xrotation Zrotation
        JOINT rightToes
        {
          OFFSET 0 -0.7027875951174846 1.2062924140498823
          CHANNELS 3 Yrotation Xrotation Zrotation
          End Site
          {
            OFFSET 0 -0.7027875951174846 1.2062924140498823
          }
        }
      }
    }
  }
}
MOTION
Frames: 4
Frame Time: 0.03333333333333333
-0.773916482925415 -5.2090105732950285 -8.416411399841309 8.802125485347036 4.942882914710778 6.721225906627722 2.632580754386604 -0.048838803331894186 1.1621093663696762 5.384865411927481 1.9558877669218773 -10.085160080618612 0 0 0 -1.6619889836799717 4.472520956008315 -2.4546941442253245 -13.784384860074873 -7.731889718196925 11.553092828631767 0 0 0 0 0 0 6.093784005034369 0.2767213608646234 -9.498011280332353 -24.146573619945205 -39.938850926203294 -29.23929690809755 -9.266606380165317 -1.3031290909609725 0.22556076211038364 -8.30193548154542 8.931450299784197 1.2613444585248914 -1.8405543189332018e-10 4.4505883324280764e-9 4.56394454989163e-13 0.00002301021493846689 0.000013209564789253233 -0.0002772734918249327 -5.269914485035549e-7 -0.0000021140368367901977 -0.000005204036393807067 4.060507479550178 -0.016204188797414587 0.4574263722199111 -4.060523902353687 -0.016216776956620663 -0.45743048087472066 -3.6886905295934835e-7 0.000001608918444497629 -0.00000822643578006871 -0.001722692602808456 0.00000886080509550681 0.016013952675776117 0.0017171940378961027 -0.000002747248124990905 -0.016016602375578382 4.679385222882585e-7 -0.0000032798107857411373 -0.0000030263984376070923 -2.499399605396151e-11 -6.108701537329427e-10 -2.3935504582910804e-12 -0.000013521977698949925 0.000011670643686851967 -0.00001943771658516375 0 0 0 3.770509731881894 -1.5392603839765315 5.992960461674964 7.976351328985018 3.908111837141472 1.1905906545257485 1.6077346293938688 -0.5796741700538961 2.50190622473609 -5.2389670159677495 0.3148558564062113 9.653307319628743 -12.104989561226544 -22.574041297459644 64.47184461004926 3.3693372520631315 -0.47796537304106285 -0.05761101054507734 -4.263013125965578 44.49813687810312 12.673808627344213 -0.0000016572416041061643 -0.000002572912813791282 -0.00001106931550011103 0.000005299363469831142 -0.000001201351480951164 0.000020403427843318778 0.000007362642317904149 -5.508887114915745e-7 -0.000002774989075589251 0.0000018921790515397681 -0.000007700728461434548 -0.000006895048465965619 2.8607590523370694e-9 6.361110121230362e-15 -3.673552149328957e-11 0.000006982705977875249 -0.0000027910029902993614 -0.000002939491434824536 -0.000001656693327367955 -0.000002539140717294879 -0.000011069322013887018 8.192375041873911e-7 0.000009251009589158235 0.00008051599030246096 -7.628104439171111e-7 3.1011041710761833e-7 0.000001419820983132773 -0.0000016581221851974929 -0.000002589318979949144 -0.000011069301658337056 -0.0000031154918300109986 0.0000012404460448737153 3.398513259341096e-7 0.000008333405009337687 -5.313439230851693e-7 -0.0000018270241930014277 -3.668299077725481 -1.8488340486803725 -6.421066820097895 -8.664345846388144 4.592885927442489 -0.8121267325777454 0.11027721115663046 -1.274241823397964 -2.098919991041849 -17.77513715158871 -79.85845876723478 55.08192218397855 168.4205141295971 59.12438613042987 169.34488396766062 0.6837123265134271 -19.2562358088249 -3.8279198861976345 0.000002082743580240298 -16.267161379177825 0.0000035825565072121166 -7.920462528203143 1.4451653391876433 -19.755661962188064 163.20187788177788 81.77068202801837 160.38786904251216 0.054462709833349734 -7.321681507654861 -0.13123463720905837 0.0000015866201632784138 22.566002940965106 -0.000001424129768414424
-0.8054003715515137 -5.110248537925155 -8.202531814575195 9.152953938266739 8.679994542232413 7.891342886938203 3.208176521059497 -0.8859383189573626 0.6631427954341494 7.708152932447889 -1.2704092490769179 -11.464613635756226 0 0 0 -1.9236559302483873 3.693553916704111 -3.285735699446462 -14.087570356691254 -8.215093315525904 7.210402646790831 0 0 0 0 0 0 6.060287792210995 0.27568324008985107 -9.393679976791656 -25.67564833985529 -38.600901269924684 -31.25471093400824 -10.205059622478302 -1.4325892365786268 0.26007718035192157 -11.293559617915355 17.77917748652176 -1.0910028232157356 -1.8405543189332018e-10 4.4505883324280764e-9 4.56394454989163e-13 0.00002301021493846689 0.000013209564789253233 -0.0002772734918249327 -5.269914485035549e-7 -0.0000021140368367901977 -0.000005204036393807067 4.060507479550178 -0.016204188797414587 0.4574263722199111 -4.060523902353687 -0.016216776956620663 -0.45743048087472066 -3.6886905295934835e-7 0.000001608918444497629 -0.00000822643578006871 -0.001722692602808456 0.00000886080509550681 0.016013952675776117 0.0017171940378961027 -0.000002747248124990905 -0.016016602375578382 4.679385222882585e-7 -0.0000032798107857411373 -0.0000030263984376070923 -2.499399605396151e-11 -6.108701537329427e-10 -2.3935504582910804e-12 -0.000013521977698949925 0.000011670643686851967 -0.00001943771658516375 0 0 0 3.770509731881894 -1.5392603839765315 5.992960461674964 7.976349634016097 3.9081276687683193 1.190578034737372 1.6077273748033594 -0.5796797732302155 2.5019157568599057 -4.861552557080388 0.40695508375223605 9.305801755229282 -8.446727632797087 -18.07382933797601 63.75267580978513 6.432057840907215 -0.9087442895394016 -0.13420275037359103 4.732017915509681 64.65202971558922 41.76271120390598 -0.0000016572416041061643 -0.000002572912813791282 -0.00001106931550011103 0.000005299363469831142 -0.000001201351480951164 0.000020403427843318778 0.000007362642317904149 -5.508887114915745e-7 -0.000002774989075589251 0.0000018921790515397681 -0.000007700728461434548 -0.000006895048465965619 2.8607590523370694e-9 6.361110121230362e-15 -3.673552149328957e-11 0.000006982705977875249 -0.0000027910029902993614 -0.000002939491434824536 -0.000001656693327367955 -0.000002539140717294879 -0.000011069322013887018 8.192375041873911e-7 0.000009251009589158235 0.00008051599030246096 -7.628104439171111e-7 3.1011041710761833e-7 0.000001419820983132773 -0.0000016581221851974929 -0.000002589318979949144 -0.000011069301658337056 -0.0000031154918300109986 0.0000012404460448737153 3.398513259341096e-7 0.000008333405009337687 -5.313439230851693e-7 -0.0000018270241930014277 -3.668299077725481 -1.8488340486803725 -6.421066820097895 -8.664359910503416 4.59289834704193 -0.8121156474435178 0.11026679656400873 -1.2742488687728217 -2.0989283118075237 -11.082761012193723 -81.1676458019381 49.1909711727676 168.77030636044177 60.62817815125595 169.15976265863065 0.6799406453059247 -18.37380571753399 -3.9797693316297282 0.000020815219099718535 -17.60286279346143 -0.00000852876287717687 -9.206548873353944 -0.2304132907590318 -20.050817849117117 151.48083141464986 85.185535699635 148.67112484526712 0.04054809127313009 -6.743415160395766 0.08393727201521277 0.000016745695420608465 21.039236051233416 0.000005287180805592913
-0.8407709002494812 -5.033544512656601 -7.890202522277832 9.638962025150347 12.561323390625784 8.868526945573956 3.33211903952562 -1.358093640152637 0.21918243599419898 8.734545581452215 -3.0083818563789957 -13.249415272570882 0 0 0 -1.820161603903878 1.7560233705923147 -4.450188563227118 -11.73479664802182 -18.82213500112671 1.2012226223457745 0 0 0 0 0 0 6.174431352166019 0.28063998813017127 -9.776175642784832 -31.79711691646479 -33.349231989138424 -25.51790090270672 -13.196573630584487 -1.841188383956617 0.3841393220065826 -20.867330739409248 31.758576126422724 -9.3898172895294 -1.8405543189332018e-10 4.4505883324280764e-9 4.56394454989163e-13 0.00002301021493846689 0.000013209564789253233 -0.0002772734918249327 -5.269914485035549e-7 -0.0000021140368367901977 -0.000005204036393807067 4.060507479550178 -0.016204188797414587 0.4574263722199111 -4.060523902353687 -0.016216776956620663 -0.45743048087472066 -3.6886905295934835e-7 0.000001608918444497629 -0.00000822643578006871 -0.001722692602808456 0.00000886080509550681 0.016013952675776117 0.0017171940378961027 -0.000002747248124990905 -0.016016602375578382 4.679385222882585e-7 -0.0000032798107857411373 -0.0000030263984376070923 -2.499399605396151e-11 -6.108701537329427e-10 -2.3935504582910804e-12 -0.000013521977698949925 0.000011670643686851967 -0.00001943771658516375 0 0 0 3.770509731881894 -1.5392603839765315 5.992960461674964 7.976339464202279 3.9081310918228116 1.1905888364206507 1.6077563931650882 -0.5796800934117197 2.5018846863988657 -4.536356579013362 0.46851094815064626 9.042027269010733 5.111958202309589 -5.077029807011789 59.262737512407305 25.15493398792464 -3.390994715605905 -1.0866292151907666 8.771042818037117 46.394757217745095 63.31712877294524 -0.0000016572416041061643 -0.000002572912813791282 -0.00001106931550011103 0.000005299363469831142 -0.000001201351480951164 0.000020403427843318778 0.000007362642317904149 -5.508887114915745e-7 -0.000002774989075589251 0.0000018921790515397681 -0.000007700728461434548 -0.000006895048465965619 2.8607590523370694e-9 6.361110121230362e-15 -3.673552149328957e-11 0.000006982705977875249 -0.0000027910029902993614 -0.000002939491434824536 -0.000001656693327367955 -0.000002539140717294879 -0.000011069322013887018 8.192375041873911e-7 0.000009251009589158235 0.00008051599030246096 -7.628104439171111e-7 3.1011041710761833e-7 0.000001419820983132773 -0.0000016581221851974929 -0.000002589318979949144 -0.000011069301658337056 -0.0000031154918300109986 0.0000012404460448737153 3.398513259341096e-7 0.000008333405009337687 -5.313439230851693e-7 -0.0000018270241930014277 -3.668299077725481 -1.8488340486803725 -6.421066820097895 -8.664353983258493 4.592900488352201 -0.8121036037829154 0.11028158114904804 -1.2742474810474695 -2.098927245042699 -4.114607134690722 -81.73734621077074 43.75499815504072 169.1313746190161 61.871047969491855 169.00858861298445 0.6715372343542195 -17.62859852010903 -4.095036882282754 0.000009443590556235906 -19.097790490867254 -0.000013110536407244862 -10.879056924226868 -1.1644927393998217 -20.099939737611127 76.03697305656112 87.56361493246483 73.34321303749225 0.026808053996524382 -6.1524526433902835 0.30669899474844536 0.000008961003482031274 20.768407932173243 0.0000010813199344845276
-0.8937317728996277 -5.0625071248087 -7.67074728012085 9.708754527020353 14.02243566081404 9.916437484046945 3.037376869284809 -1.243702864971398 0.07786945886805474 8.02369947251418 -2.5860176468720786 -14.049637177094484 0 0 0 -1.5083016383006425 0.44332014597978975 -5.300640398010392 -7.788505437716863 -29.33069064093686 -3.7528127232400497 0 0 0 0 0 0 6.127171917580827 0.277209725096116 -9.592372275022964 -34.00806143861593 -29.324295914737647 -21.500886666685542 -15.580839460649416 -2.161671303778788 0.49817737038434634 -26.379443758818343 35.55836775722191 -11.745153561848786 -1.8405543189332018e-10 4.4505883324280764e-9 4.56394454989163e-13 0.00002301021493846689 0.000013209564789253233 -0.0002772734918249327 -5.269914485035549e-7 -0.0000021140368367901977 -0.000005204036393807067 4.060507479550178 -0.016204188797414587 0.4574263722199111 -4.060523902353687 -0.016216776956620663 -0.45743048087472066 -3.6886905295934835e-7 0.000001608918444497629 -0.00000822643578006871 -0.001722692602808456 0.00000886080509550681 0.016013952675776117 0.0017171940378961027 -0.000002747248124990905 -0.016016602375578382 4.679385222882585e-7 -0.0000032798107857411373 -0.0000030263984376070923 -2.499399605396151e-11 -6.108701537329427e-10 -2.3935504582910804e-12 -0.000013521977698949925 0.000011670643686851967 -0.00001943771658516375 0 0 0 3.770509731881894 -1.5392603839765315 5.992960461674964 7.97635810886056 3.9081199668957614 1.1905830612632646 1.60772982856192 -0.579674436871816 2.501910703004137 -4.550394422269792 0.4657287275388154 9.063929026845582 8.85532138335825 -0.734678481007251 58.423410202403254 35.940143885067975 -4.6330978726052825 -1.9823639359344012 -0.5735623343504686 27.389733089068923 52.44144270582486 -0.0000016572416041061643 -0.000002572912813791282 -0.00001106931550011103 0.000005299363469831142 -0.000001201351480951164 0.000020403427843318778 0.000007362642317904149 -5.508887114915745e-7 -0.000002774989075589251 0.0000018921790515397681 -0.000007700728461434548 -0.000006895048465965619 2.8607590523370694e-9 6.361110121230362e-15 -3.673552149328957e-11 0.000006982705977875249 -0.0000027910029902993614 -0.000002939491434824536 -0.000001656693327367955 -0.000002539140717294879 -0.000011069322013887018 8.192375041873911e-7 0.000009251009589158235 0.00008051599030246096 -7.628104439171111e-7 3.1011041710761833e-7 0.000001419820983132773 -0.0000016581221851974929 -0.000002589318979949144 -0.000011069301658337056 -0.0000031154918300109986 0.0000012404460448737153 3.398513259341096e-7 0.000008333405009337687 -5.313439230851693e-7 -0.0000018270241930014277 -3.668299077725481 -1.8488340486803725 -6.421066820097895 -8.66432754852705 4.592884214394307 -0.8121057498459302 0.11027206724188995 -1.2742408626650301 -2.098917430806239 1.6233251529222024 -81.22662630735532 39.361527832261956 168.82538939437373 61.85734596406109 168.73942339146035 0.6940885398087648 -17.739491439864757 -4.222510418509688 0.000011937010314671463 -19.42797728121142 -0.000005814680143660801 -11.72294714777232 -1.0297194684950624 -20.657096222392244 43.93858490275118 86.68660154429382 41.21476487641384 0.02241997517377073 -6.003530989066464 0.38270453940162585 0.000003673338622603586 19.486957077327713 6.37230777871032e-7
